<?xml version="1.0" encoding="utf-8"?>
<!-- Generator: Adobe Illustrator 23.0.1, SVG Export Plug-In . SVG Version: 6.00 Build 0)  -->
<svg version="1.1" id="Camada_1" xmlns="http://www.w3.org/2000/svg" xmlns:xlink="http://www.w3.org/1999/xlink" x="0px" y="0px"
	 viewBox="0 0 17.6 4.8" style="enable-background:new 0 0 17.6 4.8;" xml:space="preserve">
<style type="text/css">
	.st0{fill:#211915;}
</style>
<g>
	<path class="st0" d="M4,1.7H3.7V4C3.3,4.4,2.9,4.6,2.4,4.6c-1.2,0-2-1-2-2.2c0-0.6,0.2-1.2,0.7-1.6c0.4-0.4,0.9-0.6,1.4-0.6
		c0.5,0,0.9,0.2,1.3,0.6l0,0l0.3-0.2L4,0.6C3.6,0.2,3.1,0,2.4,0C1.1,0,0,1.1,0,2.4s1.1,2.4,2.4,2.4c0.7,0,1.3-0.2,1.7-0.7L4.2,4
		L4,3.9L4,1.7L4,1.7z"/>
	<path class="st0" d="M6.2,0l0.2,0.4L4.3,4.7h0.3l0.8-1.6h2.4l0.8,1.6h0.4L6.6,0H6.2z M5.5,2.9l1.1-2.2l1.1,2.2H5.5z"/>
	<path class="st0" d="M12.6,1.7h-0.3V4c-0.4,0.4-0.8,0.6-1.3,0.5c-1.1,0-2-1-2-2.2c0-0.6,0.2-1.2,0.7-1.6C10,0.4,10.5,0.2,11,0.3
		c0.5,0,0.9,0.2,1.3,0.6l0,0l0.3-0.2l-0.1-0.1C12.1,0.2,11.6,0,11,0C9.6,0,8.6,1.1,8.6,2.4S9.6,4.8,11,4.8c0.7,0,1.3-0.2,1.7-0.7
		L12.8,4l-0.2-0.1L12.6,1.7L12.6,1.7z"/>
	<path class="st0" d="M15.3,0h-0.4l0.2,0.4L13,4.7h0.3l0.8-1.6h2.4l0.8,1.6h0.4L15.3,0z M14.1,2.9l1.1-2.2l1.1,2.2H14.1z"/>
</g>
</svg>
